<svg width="170" height="75" viewBox="0 0 170 75" fill="none" xmlns="http://www.w3.org/2000/svg">
<path d="M45.262 56.9048C45.949 56.9048 46.4774 57.2222 46.8474 57.8571C47.2701 58.4921 47.4815 59.3651 47.4815 60.4762C47.4815 62.5926 46.9795 64.2328 45.9754 65.3968C43.5974 68.3069 41.1929 70.6349 38.762 72.381C36.3311 74.127 33.4511 75 30.1218 75C26.0527 75 22.7763 73.836 20.2926 71.5079C17.8089 69.1799 16.567 66.0847 16.567 62.2222C16.567 60.1587 17.6239 58.6772 19.7377 57.7778C22.0629 56.7725 23.7275 55.7143 24.7316 54.6032C25.7357 53.4392 26.2377 52.037 26.2377 50.3968C26.2377 49.4444 26.0263 48.7302 25.6035 48.254C25.2336 47.7778 24.758 47.5397 24.1767 47.5397C22.7499 47.5397 21.1645 48.5714 19.4206 50.6349C17.7296 52.6984 16.1442 55.3704 14.6646 58.6508C13.1849 61.8783 12.0223 65.2116 11.1768 68.6508C10.5955 71.1376 9.90849 72.8307 9.11581 73.7302C8.37598 74.5767 7.18696 75 5.54876 75C3.91055 75 2.69511 74.418 1.90243 73.254C1.1626 72.037 0.660566 70.1852 0.39634 67.6984C0.132113 65.2116 0 61.5608 0 56.746C0 48.5979 0.819102 40.1058 2.45731 31.2698C4.14836 22.4339 6.60566 15.0265 9.82923 9.04762C13.1056 3.01587 17.0162 0 21.5609 0C23.9918 0 25.947 1.0582 27.4267 3.1746C28.9592 5.2381 29.7255 7.93651 29.7255 11.2698C29.7255 16.6138 28.1665 22.1693 25.0487 27.9365C21.9308 33.6508 16.8576 40.3439 9.82923 48.0159C9.67069 50.7672 9.59142 53.5979 9.59142 56.5079C12.128 49.8942 15.0345 45.1058 18.3109 42.1429C21.5873 39.127 24.6523 37.619 27.506 37.619C30.1482 37.619 32.2621 38.5185 33.8474 40.3175C35.4856 42.1164 36.3047 44.3386 36.3047 46.9841C36.3047 49.8942 35.5649 52.5661 34.0852 55C32.6055 57.4339 30.069 59.6032 26.4755 61.5079C26.6869 62.9365 27.321 64.1005 28.3779 65C29.4877 65.8466 30.8088 66.2698 32.3413 66.2698C33.9795 66.2698 35.5649 65.6349 37.0974 64.3651C38.6299 63.0952 40.638 60.9788 43.1218 58.0159C43.7559 57.2751 44.4693 56.9048 45.262 56.9048ZM19.8963 7.85715C18.945 7.85715 17.8881 9.23281 16.7255 11.9841C15.5629 14.6825 14.4268 18.3598 13.317 23.0159C12.2601 27.619 11.3882 32.6455 10.7012 38.0952C13.9776 34.2328 16.6727 30.0265 18.7865 25.4762C20.9532 20.9259 22.0365 16.7989 22.0365 13.0952C22.0365 11.4021 21.8515 10.1058 21.4816 9.20635C21.1117 8.30688 20.5832 7.85715 19.8963 7.85715Z" fill="url(#paint0_linear)"/>
<path d="M76.4453 56.9048C77.1322 56.9048 77.6607 57.2222 78.0306 57.8571C78.4534 58.4921 78.6648 59.3651 78.6648 60.4762C78.6648 62.5926 78.1627 64.2328 77.1587 65.3968C75.2034 67.7778 72.429 69.9735 68.8355 71.9841C65.2949 73.9947 61.49 75 57.421 75C51.8722 75 47.5653 73.4921 44.5003 70.4762C41.4352 67.4603 39.9027 63.3333 39.9027 58.0952C39.9027 54.4444 40.669 51.0582 42.2015 47.9365C43.734 44.7619 45.8478 42.2487 48.5429 40.3968C51.2909 38.545 54.3823 37.619 57.8173 37.619C60.8823 37.619 63.3396 38.545 65.1892 40.3968C67.0388 42.1958 67.9636 44.6561 67.9636 47.7778C67.9636 51.4286 66.6425 54.5767 64.0002 57.2222C61.4108 59.8148 56.9982 61.8783 50.7624 63.4127C52.0836 65.8466 54.5937 67.0635 58.2929 67.0635C60.6709 67.0635 63.366 66.2434 66.3782 64.6032C69.4433 62.9101 72.0855 60.7143 74.305 58.0159C74.9392 57.2751 75.6526 56.9048 76.4453 56.9048ZM56.4697 45.3968C54.5145 45.3968 52.8498 46.5344 51.4759 48.8095C50.1547 51.0847 49.4942 53.836 49.4942 57.0635V57.2222C52.612 56.4815 55.0693 55.3704 56.8661 53.8889C58.6628 52.4074 59.5612 50.6878 59.5612 48.7302C59.5612 47.7249 59.2705 46.9312 58.6892 46.3492C58.1608 45.7143 57.4209 45.3968 56.4697 45.3968Z" fill="url(#paint1_linear)"/>
<path d="M107.564 56.9048C108.251 56.9048 108.78 57.2222 109.149 57.8571C109.572 58.4921 109.784 59.3651 109.784 60.4762C109.784 62.5926 109.282 64.2328 108.278 65.3968C106.322 67.7778 103.548 69.9735 99.9544 71.9841C96.4137 73.9947 92.6089 75 88.5398 75C82.9911 75 78.6842 73.4921 75.6191 70.4762C72.5541 67.4603 71.0216 63.3333 71.0216 58.0952C71.0216 54.4444 71.7878 51.0582 73.3204 47.9365C74.8529 44.7619 76.9667 42.2487 79.6618 40.3968C82.4098 38.545 85.5012 37.619 88.9361 37.619C92.0012 37.619 94.4585 38.545 96.3081 40.3968C98.1577 42.1958 99.0824 44.6561 99.0824 47.7778C99.0824 51.4286 97.7613 54.5767 95.119 57.2222C92.5296 59.8148 88.1171 61.8783 81.8813 63.4127C83.2024 65.8466 85.7126 67.0635 89.4118 67.0635C91.7898 67.0635 94.4849 66.2434 97.4971 64.6032C100.562 62.9101 103.204 60.7143 105.424 58.0159C106.058 57.2751 106.771 56.9048 107.564 56.9048ZM87.5886 45.3968C85.6333 45.3968 83.9687 46.5344 82.5947 48.8095C81.2736 51.0847 80.613 53.836 80.613 57.0635V57.2222C83.7309 56.4815 86.1882 55.3704 87.9849 53.8889C89.7817 52.4074 90.68 50.6878 90.68 48.7302C90.68 47.7249 90.3894 46.9312 89.8081 46.3492C89.2797 45.7143 88.5398 45.3968 87.5886 45.3968Z" fill="url(#paint2_linear)"/>
<path d="M108.957 75C106.949 75 105.523 73.9418 104.677 71.8254C103.884 69.709 103.488 66.3228 103.488 61.6667C103.488 54.7884 104.466 48.254 106.421 42.0635C106.897 40.5291 107.663 39.418 108.72 38.7302C109.829 37.9894 111.362 37.619 113.317 37.619C114.374 37.619 115.114 37.7513 115.537 38.0159C115.959 38.2804 116.171 38.7831 116.171 39.5238C116.171 40.3704 115.775 42.2751 114.982 45.2381C114.453 47.3545 114.031 49.2063 113.714 50.7937C113.396 52.381 113.132 54.3386 112.921 56.6667C114.665 52.1164 116.62 48.4127 118.787 45.5556C120.953 42.6984 123.067 40.6614 125.128 39.4444C127.242 38.2275 129.171 37.619 130.915 37.619C134.35 37.619 136.067 39.3386 136.067 42.7778C136.067 43.4656 135.829 45.1323 135.354 47.7778C134.931 49.8942 134.72 51.2169 134.72 51.746C134.72 53.5979 135.38 54.5238 136.701 54.5238C138.181 54.5238 140.083 53.3598 142.409 51.0317C143.096 50.3439 143.809 50 144.549 50C145.236 50 145.764 50.3175 146.134 50.9524C146.557 51.5344 146.768 52.328 146.768 53.3333C146.768 55.291 146.24 56.8254 145.183 57.9365C143.703 59.4709 141.959 60.7937 139.951 61.9048C137.996 62.963 135.909 63.4921 133.689 63.4921C130.888 63.4921 128.748 62.7778 127.268 61.3492C125.842 59.9206 125.128 57.9894 125.128 55.5556C125.128 54.7619 125.207 53.9683 125.366 53.1746C125.472 52.1164 125.524 51.4021 125.524 51.0317C125.524 50.1852 125.234 49.7619 124.653 49.7619C123.86 49.7619 122.803 50.6614 121.482 52.4603C120.214 54.2064 118.945 56.5344 117.677 59.4444C116.409 62.3545 115.378 65.4233 114.586 68.6508C114.004 71.1376 113.317 72.8307 112.525 73.7302C111.785 74.5767 110.596 75 108.957 75Z" fill="url(#paint3_linear)"/>
<path d="M152.799 75C149.681 75 147.012 74.2328 144.793 72.6984C142.626 71.1111 140.988 69.0476 139.878 66.5079C138.768 63.9683 138.214 61.2434 138.214 58.3333C138.214 54.3122 138.953 50.7407 140.433 47.619C141.966 44.4444 144.027 41.9841 146.616 40.2381C149.205 38.4392 152.112 37.5397 155.335 37.5397C158.453 37.5397 161.122 38.3333 163.342 39.9206C165.561 41.455 167.226 43.4921 168.335 46.0317C169.445 48.5714 170 51.2963 170 54.2063C170 58.2275 169.234 61.8254 167.701 65C166.169 68.1217 164.081 70.582 161.439 72.381C158.85 74.127 155.97 75 152.799 75ZM153.671 66.4286C155.468 66.4286 156.974 65.4497 158.189 63.4921C159.457 61.5344 160.092 58.6772 160.092 54.9206C160.092 52.0106 159.563 49.8148 158.506 48.3333C157.449 46.8519 156.181 46.1111 154.701 46.1111C152.799 46.1111 151.214 47.0899 149.945 49.0476C148.73 50.9524 148.122 53.8095 148.122 57.619C148.122 60.6349 148.651 62.8571 149.707 64.2857C150.764 65.7143 152.085 66.4286 153.671 66.4286Z" fill="url(#paint4_linear)"/>
<defs>
<linearGradient id="paint0_linear" x1="0" y1="37.5" x2="163.475" y2="75.301" gradientUnits="userSpaceOnUse">
<stop stop-color="#0000FF"/>
<stop offset="1" stop-color="#B721FF" stop-opacity="0.58"/>
</linearGradient>
<linearGradient id="paint1_linear" x1="0" y1="37.5" x2="163.475" y2="75.301" gradientUnits="userSpaceOnUse">
<stop stop-color="#0000FF"/>
<stop offset="1" stop-color="#B721FF" stop-opacity="0.58"/>
</linearGradient>
<linearGradient id="paint2_linear" x1="0" y1="37.5" x2="163.475" y2="75.301" gradientUnits="userSpaceOnUse">
<stop stop-color="#0000FF"/>
<stop offset="1" stop-color="#B721FF" stop-opacity="0.58"/>
</linearGradient>
<linearGradient id="paint3_linear" x1="0" y1="37.5" x2="163.475" y2="75.301" gradientUnits="userSpaceOnUse">
<stop stop-color="#0000FF"/>
<stop offset="1" stop-color="#B721FF" stop-opacity="0.58"/>
</linearGradient>
<linearGradient id="paint4_linear" x1="0" y1="37.5" x2="163.475" y2="75.301" gradientUnits="userSpaceOnUse">
<stop stop-color="#0000FF"/>
<stop offset="1" stop-color="#B721FF" stop-opacity="0.58"/>
</linearGradient>
</defs>
</svg>
